<mxfile host="app.diagrams.net" agent="Mozilla/5.0 (Windows NT 10.0; Win64; x64) AppleWebKit/537.36 (KHTML, like Gecko) Chrome/131.0.0.0 Safari/537.36" version="26.0.5" pages="4">
  <diagram name="Page-1" id="I6V3QOWeh6y6jcidZQD9">
    <mxGraphModel grid="1" page="1" gridSize="8" guides="1" tooltips="1" connect="1" arrows="1" fold="1" pageScale="1" pageWidth="850" pageHeight="1100" math="0" shadow="0">
      <root>
        <mxCell id="0" />
        <mxCell id="1" parent="0" />
        <mxCell id="en-bnu5kpqoa_bVA59Lr-4" value="admin" style="shape=umlActor;verticalLabelPosition=bottom;verticalAlign=top;html=1;outlineConnect=0;" vertex="1" parent="1">
          <mxGeometry x="40" y="144" width="70" height="160" as="geometry" />
        </mxCell>
        <mxCell id="en-bnu5kpqoa_bVA59Lr-5" value="" style="rounded=0;whiteSpace=wrap;html=1;" vertex="1" parent="1">
          <mxGeometry x="368" y="24" width="160" height="536" as="geometry" />
        </mxCell>
        <mxCell id="en-bnu5kpqoa_bVA59Lr-6" value="&lt;font style=&quot;font-size: 13px;&quot;&gt;Login&lt;/font&gt;" style="ellipse;whiteSpace=wrap;html=1;" vertex="1" parent="1">
          <mxGeometry x="388" y="40" width="120" height="48" as="geometry" />
        </mxCell>
        <mxCell id="en-bnu5kpqoa_bVA59Lr-8" value="&lt;font&gt;Manage job provider&lt;/font&gt;" style="ellipse;whiteSpace=wrap;html=1;" vertex="1" parent="1">
          <mxGeometry x="388" y="104" width="120" height="48" as="geometry" />
        </mxCell>
        <mxCell id="en-bnu5kpqoa_bVA59Lr-10" value="&lt;font&gt;monetizing job providers&lt;/font&gt;" style="ellipse;whiteSpace=wrap;html=1;" vertex="1" parent="1">
          <mxGeometry x="384" y="168" width="120" height="48" as="geometry" />
        </mxCell>
        <mxCell id="en-bnu5kpqoa_bVA59Lr-11" value="&lt;font&gt;Manage notification&lt;/font&gt;" style="ellipse;whiteSpace=wrap;html=1;" vertex="1" parent="1">
          <mxGeometry x="384" y="224" width="120" height="48" as="geometry" />
        </mxCell>
        <mxCell id="en-bnu5kpqoa_bVA59Lr-12" value="&lt;font&gt;Manage&amp;nbsp;&lt;/font&gt;&lt;div&gt;&lt;font&gt;job seeker&lt;/font&gt;&lt;/div&gt;" style="ellipse;whiteSpace=wrap;html=1;" vertex="1" parent="1">
          <mxGeometry x="384" y="280" width="120" height="48" as="geometry" />
        </mxCell>
        <mxCell id="en-bnu5kpqoa_bVA59Lr-13" value="Manage&amp;nbsp;&lt;div&gt;platform policies&lt;/div&gt;" style="ellipse;whiteSpace=wrap;html=1;" vertex="1" parent="1">
          <mxGeometry x="384" y="336" width="120" height="48" as="geometry" />
        </mxCell>
        <mxCell id="en-bnu5kpqoa_bVA59Lr-14" value="&lt;font style=&quot;font-size: 11px;&quot;&gt;Manage subscription&lt;/font&gt;&lt;div&gt;plan&lt;/div&gt;" style="ellipse;whiteSpace=wrap;html=1;" vertex="1" parent="1">
          <mxGeometry x="384" y="392" width="120" height="48" as="geometry" />
        </mxCell>
        <mxCell id="en-bnu5kpqoa_bVA59Lr-15" value="Manage&lt;div&gt;Notification&lt;/div&gt;" style="ellipse;whiteSpace=wrap;html=1;" vertex="1" parent="1">
          <mxGeometry x="384" y="448" width="120" height="48" as="geometry" />
        </mxCell>
        <mxCell id="en-bnu5kpqoa_bVA59Lr-16" value="Logout" style="ellipse;whiteSpace=wrap;html=1;" vertex="1" parent="1">
          <mxGeometry x="388" y="502" width="120" height="48" as="geometry" />
        </mxCell>
        <mxCell id="en-bnu5kpqoa_bVA59Lr-18" value="" style="endArrow=classic;html=1;rounded=0;entryX=-0.012;entryY=0.172;entryDx=0;entryDy=0;entryPerimeter=0;" edge="1" parent="1">
          <mxGeometry width="50" height="50" relative="1" as="geometry">
            <mxPoint x="136" y="208" as="sourcePoint" />
            <mxPoint x="398.0799999999999" y="80.00200000000001" as="targetPoint" />
          </mxGeometry>
        </mxCell>
        <mxCell id="en-bnu5kpqoa_bVA59Lr-19" value="" style="endArrow=classic;html=1;rounded=0;entryX=0.1;entryY=0.194;entryDx=0;entryDy=0;entryPerimeter=0;" edge="1" parent="1" target="en-bnu5kpqoa_bVA59Lr-5">
          <mxGeometry width="50" height="50" relative="1" as="geometry">
            <mxPoint x="128" y="208" as="sourcePoint" />
            <mxPoint x="406.0799999999999" y="88.00200000000001" as="targetPoint" />
          </mxGeometry>
        </mxCell>
        <mxCell id="en-bnu5kpqoa_bVA59Lr-20" value="" style="endArrow=classic;html=1;rounded=0;entryX=0;entryY=0.5;entryDx=0;entryDy=0;" edge="1" parent="1" target="en-bnu5kpqoa_bVA59Lr-10">
          <mxGeometry width="50" height="50" relative="1" as="geometry">
            <mxPoint x="136" y="208" as="sourcePoint" />
            <mxPoint x="414.0799999999999" y="96.00200000000001" as="targetPoint" />
          </mxGeometry>
        </mxCell>
        <mxCell id="en-bnu5kpqoa_bVA59Lr-21" value="" style="endArrow=classic;html=1;rounded=0;" edge="1" parent="1" target="en-bnu5kpqoa_bVA59Lr-11">
          <mxGeometry width="50" height="50" relative="1" as="geometry">
            <mxPoint x="128" y="208" as="sourcePoint" />
            <mxPoint x="422.0799999999999" y="104.00200000000001" as="targetPoint" />
          </mxGeometry>
        </mxCell>
        <mxCell id="en-bnu5kpqoa_bVA59Lr-22" value="" style="endArrow=classic;html=1;rounded=0;entryX=0.043;entryY=0.354;entryDx=0;entryDy=0;entryPerimeter=0;" edge="1" parent="1" target="en-bnu5kpqoa_bVA59Lr-12">
          <mxGeometry width="50" height="50" relative="1" as="geometry">
            <mxPoint x="128" y="208" as="sourcePoint" />
            <mxPoint x="430.0799999999999" y="112.00200000000001" as="targetPoint" />
          </mxGeometry>
        </mxCell>
        <mxCell id="en-bnu5kpqoa_bVA59Lr-23" value="" style="endArrow=classic;html=1;rounded=0;" edge="1" parent="1" target="en-bnu5kpqoa_bVA59Lr-13">
          <mxGeometry width="50" height="50" relative="1" as="geometry">
            <mxPoint x="128" y="208" as="sourcePoint" />
            <mxPoint x="438.0799999999999" y="120.00200000000001" as="targetPoint" />
          </mxGeometry>
        </mxCell>
        <mxCell id="en-bnu5kpqoa_bVA59Lr-24" value="" style="endArrow=classic;html=1;rounded=0;entryX=0;entryY=0.5;entryDx=0;entryDy=0;" edge="1" parent="1" target="en-bnu5kpqoa_bVA59Lr-14">
          <mxGeometry width="50" height="50" relative="1" as="geometry">
            <mxPoint x="128" y="208" as="sourcePoint" />
            <mxPoint x="446.0799999999999" y="128.002" as="targetPoint" />
          </mxGeometry>
        </mxCell>
        <mxCell id="en-bnu5kpqoa_bVA59Lr-25" value="" style="endArrow=classic;html=1;rounded=0;entryX=0;entryY=1;entryDx=0;entryDy=0;" edge="1" parent="1" target="en-bnu5kpqoa_bVA59Lr-15">
          <mxGeometry width="50" height="50" relative="1" as="geometry">
            <mxPoint x="128" y="208" as="sourcePoint" />
            <mxPoint x="454.0799999999999" y="136.002" as="targetPoint" />
          </mxGeometry>
        </mxCell>
        <mxCell id="en-bnu5kpqoa_bVA59Lr-26" value="" style="endArrow=classic;html=1;rounded=0;entryX=0.05;entryY=0.746;entryDx=0;entryDy=0;entryPerimeter=0;" edge="1" parent="1" target="en-bnu5kpqoa_bVA59Lr-16">
          <mxGeometry width="50" height="50" relative="1" as="geometry">
            <mxPoint x="136" y="208" as="sourcePoint" />
            <mxPoint x="462.0799999999999" y="144.002" as="targetPoint" />
          </mxGeometry>
        </mxCell>
      </root>
    </mxGraphModel>
  </diagram>
  <diagram id="4CdyclZFx9YdC8InHeFq" name="Page-2">
    <mxGraphModel grid="1" page="1" gridSize="8" guides="1" tooltips="1" connect="1" arrows="1" fold="1" pageScale="1" pageWidth="850" pageHeight="1100" math="0" shadow="0">
      <root>
        <mxCell id="0" />
        <mxCell id="1" parent="0" />
        <mxCell id="66we2hV16-7D405J3Xh1-1" value="job seeker" style="shape=umlActor;verticalLabelPosition=bottom;verticalAlign=top;html=1;outlineConnect=0;" vertex="1" parent="1">
          <mxGeometry x="8" y="176" width="96" height="136" as="geometry" />
        </mxCell>
        <mxCell id="iFKATFeHDF8KWIrrxUOl-3" value="" style="rounded=0;whiteSpace=wrap;html=1;" vertex="1" parent="1">
          <mxGeometry x="380" y="8" width="212" height="680" as="geometry" />
        </mxCell>
        <mxCell id="iFKATFeHDF8KWIrrxUOl-5" value="&lt;font style=&quot;font-size: 11px;&quot;&gt;Profile&lt;/font&gt;&lt;div&gt;&lt;font style=&quot;font-size: 11px;&quot;&gt;Management&lt;/font&gt;&lt;/div&gt;" style="ellipse;whiteSpace=wrap;html=1;" vertex="1" parent="1">
          <mxGeometry x="416" y="136" width="120" height="48" as="geometry" />
        </mxCell>
        <mxCell id="iFKATFeHDF8KWIrrxUOl-6" value="&lt;span style=&quot;font-size: 14px; font-weight: normal;&quot;&gt;Login&lt;/span&gt;" style="ellipse;whiteSpace=wrap;html=1;fontStyle=1" vertex="1" parent="1">
          <mxGeometry x="416" y="72" width="120" height="56" as="geometry" />
        </mxCell>
        <mxCell id="iFKATFeHDF8KWIrrxUOl-7" value="&lt;font style=&quot;font-size: 14px;&quot;&gt;Job Searching&lt;/font&gt;" style="ellipse;whiteSpace=wrap;html=1;" vertex="1" parent="1">
          <mxGeometry x="416" y="192" width="120" height="56" as="geometry" />
        </mxCell>
        <mxCell id="iFKATFeHDF8KWIrrxUOl-8" value="&lt;font style=&quot;font-size: 13px;&quot;&gt;Job Applying&lt;/font&gt;" style="ellipse;whiteSpace=wrap;html=1;" vertex="1" parent="1">
          <mxGeometry x="416" y="256" width="120" height="64" as="geometry" />
        </mxCell>
        <mxCell id="iFKATFeHDF8KWIrrxUOl-9" value="&lt;span style=&quot;font-size: 13px;&quot;&gt;view Interview&lt;/span&gt;&lt;div&gt;&lt;span style=&quot;font-size: 13px;&quot;&gt;Schedule&lt;/span&gt;&lt;/div&gt;" style="ellipse;whiteSpace=wrap;html=1;" vertex="1" parent="1">
          <mxGeometry x="416" y="328" width="120" height="56" as="geometry" />
        </mxCell>
        <mxCell id="iFKATFeHDF8KWIrrxUOl-10" value="&lt;font style=&quot;font-size: 11px;&quot;&gt;View Notification&amp;nbsp;&lt;/font&gt;" style="ellipse;whiteSpace=wrap;html=1;" vertex="1" parent="1">
          <mxGeometry x="416" y="592" width="126" height="40" as="geometry" />
        </mxCell>
        <mxCell id="SXCCknXCd50H6zuHmZ14-1" value="&lt;font style=&quot;font-size: 13px;&quot;&gt;Message System&lt;/font&gt;" style="ellipse;whiteSpace=wrap;html=1;" vertex="1" parent="1">
          <mxGeometry x="416" y="400" width="120" height="56" as="geometry" />
        </mxCell>
        <mxCell id="SXCCknXCd50H6zuHmZ14-2" value="&lt;span style=&quot;font-size: 13px;&quot;&gt;Subscription&lt;/span&gt;&lt;div&gt;&lt;span style=&quot;font-size: 13px;&quot;&gt;Plan&lt;/span&gt;&lt;/div&gt;" style="ellipse;whiteSpace=wrap;html=1;" vertex="1" parent="1">
          <mxGeometry x="416" y="464" width="120" height="56" as="geometry" />
        </mxCell>
        <mxCell id="SXCCknXCd50H6zuHmZ14-3" value="Follow Account" style="ellipse;whiteSpace=wrap;html=1;" vertex="1" parent="1">
          <mxGeometry x="416" y="528" width="120" height="56" as="geometry" />
        </mxCell>
        <mxCell id="SXCCknXCd50H6zuHmZ14-8" value="Logout" style="ellipse;whiteSpace=wrap;html=1;" vertex="1" parent="1">
          <mxGeometry x="416" y="640" width="130" height="40" as="geometry" />
        </mxCell>
        <mxCell id="SXCCknXCd50H6zuHmZ14-10" value="&lt;font style=&quot;font-size: 14px;&quot;&gt;Register&lt;/font&gt;" style="ellipse;whiteSpace=wrap;html=1;" vertex="1" parent="1">
          <mxGeometry x="416" y="16" width="120" height="48" as="geometry" />
        </mxCell>
        <mxCell id="SXCCknXCd50H6zuHmZ14-16" value="" style="endArrow=classic;html=1;rounded=0;entryX=0.132;entryY=0.059;entryDx=0;entryDy=0;entryPerimeter=0;" edge="1" parent="1" target="iFKATFeHDF8KWIrrxUOl-3">
          <mxGeometry width="50" height="50" relative="1" as="geometry">
            <mxPoint x="128" y="272" as="sourcePoint" />
            <mxPoint x="352" y="72" as="targetPoint" />
          </mxGeometry>
        </mxCell>
        <mxCell id="SXCCknXCd50H6zuHmZ14-17" value="" style="endArrow=classic;html=1;rounded=0;entryX=0;entryY=0.5;entryDx=0;entryDy=0;" edge="1" parent="1" target="iFKATFeHDF8KWIrrxUOl-6">
          <mxGeometry width="50" height="50" relative="1" as="geometry">
            <mxPoint x="120" y="272" as="sourcePoint" />
            <mxPoint x="416" y="56" as="targetPoint" />
          </mxGeometry>
        </mxCell>
        <mxCell id="SXCCknXCd50H6zuHmZ14-18" value="" style="endArrow=classic;html=1;rounded=0;entryX=0.008;entryY=0.344;entryDx=0;entryDy=0;entryPerimeter=0;" edge="1" parent="1" target="iFKATFeHDF8KWIrrxUOl-5">
          <mxGeometry width="50" height="50" relative="1" as="geometry">
            <mxPoint x="120" y="272" as="sourcePoint" />
            <mxPoint x="424" y="64" as="targetPoint" />
          </mxGeometry>
        </mxCell>
        <mxCell id="SXCCknXCd50H6zuHmZ14-19" value="" style="endArrow=classic;html=1;rounded=0;entryX=0;entryY=0;entryDx=0;entryDy=0;" edge="1" parent="1" target="iFKATFeHDF8KWIrrxUOl-7">
          <mxGeometry width="50" height="50" relative="1" as="geometry">
            <mxPoint x="120" y="272" as="sourcePoint" />
            <mxPoint x="432" y="72" as="targetPoint" />
          </mxGeometry>
        </mxCell>
        <mxCell id="SXCCknXCd50H6zuHmZ14-20" value="" style="endArrow=classic;html=1;rounded=0;entryX=0;entryY=0;entryDx=0;entryDy=0;" edge="1" parent="1" target="iFKATFeHDF8KWIrrxUOl-8">
          <mxGeometry width="50" height="50" relative="1" as="geometry">
            <mxPoint x="128" y="272" as="sourcePoint" />
            <mxPoint x="440" y="80" as="targetPoint" />
          </mxGeometry>
        </mxCell>
        <mxCell id="SXCCknXCd50H6zuHmZ14-21" value="" style="endArrow=classic;html=1;rounded=0;entryX=0;entryY=0;entryDx=0;entryDy=0;" edge="1" parent="1" target="iFKATFeHDF8KWIrrxUOl-9">
          <mxGeometry width="50" height="50" relative="1" as="geometry">
            <mxPoint x="120" y="272" as="sourcePoint" />
            <mxPoint x="448" y="88" as="targetPoint" />
          </mxGeometry>
        </mxCell>
        <mxCell id="SXCCknXCd50H6zuHmZ14-23" value="" style="endArrow=classic;html=1;rounded=0;entryX=0;entryY=0;entryDx=0;entryDy=0;" edge="1" parent="1">
          <mxGeometry width="50" height="50" relative="1" as="geometry">
            <mxPoint x="120" y="271.62" as="sourcePoint" />
            <mxPoint x="433.193110363429" y="400.0001755832383" as="targetPoint" />
          </mxGeometry>
        </mxCell>
        <mxCell id="SXCCknXCd50H6zuHmZ14-24" value="" style="endArrow=classic;html=1;rounded=0;" edge="1" parent="1">
          <mxGeometry width="50" height="50" relative="1" as="geometry">
            <mxPoint x="128" y="274.03" as="sourcePoint" />
            <mxPoint x="446.97431717294944" y="463.9971112754522" as="targetPoint" />
          </mxGeometry>
        </mxCell>
        <mxCell id="SXCCknXCd50H6zuHmZ14-25" value="" style="endArrow=classic;html=1;rounded=0;entryX=0;entryY=0;entryDx=0;entryDy=0;" edge="1" parent="1" target="SXCCknXCd50H6zuHmZ14-3">
          <mxGeometry width="50" height="50" relative="1" as="geometry">
            <mxPoint x="128" y="272" as="sourcePoint" />
            <mxPoint x="480" y="120" as="targetPoint" />
          </mxGeometry>
        </mxCell>
        <mxCell id="SXCCknXCd50H6zuHmZ14-26" value="" style="endArrow=classic;html=1;rounded=0;entryX=0;entryY=0;entryDx=0;entryDy=0;" edge="1" parent="1" target="iFKATFeHDF8KWIrrxUOl-10">
          <mxGeometry width="50" height="50" relative="1" as="geometry">
            <mxPoint x="120" y="272" as="sourcePoint" />
            <mxPoint x="488" y="128" as="targetPoint" />
          </mxGeometry>
        </mxCell>
        <mxCell id="SXCCknXCd50H6zuHmZ14-27" value="" style="endArrow=classic;html=1;rounded=0;entryX=0.085;entryY=0.437;entryDx=0;entryDy=0;entryPerimeter=0;" edge="1" parent="1" target="SXCCknXCd50H6zuHmZ14-8">
          <mxGeometry width="50" height="50" relative="1" as="geometry">
            <mxPoint x="120" y="272" as="sourcePoint" />
            <mxPoint x="496" y="136" as="targetPoint" />
          </mxGeometry>
        </mxCell>
      </root>
    </mxGraphModel>
  </diagram>
  <diagram id="bkoLqEnG3K5CaR2L3wRc" name="Page-3">
    <mxGraphModel grid="1" page="1" gridSize="8" guides="1" tooltips="1" connect="1" arrows="1" fold="1" pageScale="1" pageWidth="850" pageHeight="1100" math="0" shadow="0">
      <root>
        <mxCell id="0" />
        <mxCell id="1" parent="0" />
        <mxCell id="QqpPn8TOwaWQVm5mVyx2-1" value="Job Provider" style="shape=umlActor;verticalLabelPosition=bottom;verticalAlign=top;html=1;outlineConnect=0;" vertex="1" parent="1">
          <mxGeometry x="40" y="144" width="70" height="160" as="geometry" />
        </mxCell>
        <mxCell id="QqpPn8TOwaWQVm5mVyx2-2" value="" style="rounded=0;whiteSpace=wrap;html=1;" vertex="1" parent="1">
          <mxGeometry x="368" y="24" width="160" height="536" as="geometry" />
        </mxCell>
        <mxCell id="QqpPn8TOwaWQVm5mVyx2-3" value="Register" style="ellipse;whiteSpace=wrap;html=1;" vertex="1" parent="1">
          <mxGeometry x="388" y="40" width="120" height="48" as="geometry" />
        </mxCell>
        <mxCell id="QqpPn8TOwaWQVm5mVyx2-4" value="Login" style="ellipse;whiteSpace=wrap;html=1;" vertex="1" parent="1">
          <mxGeometry x="388" y="104" width="120" height="48" as="geometry" />
        </mxCell>
        <mxCell id="QqpPn8TOwaWQVm5mVyx2-5" value="profile&lt;div&gt;Management&lt;/div&gt;" style="ellipse;whiteSpace=wrap;html=1;" vertex="1" parent="1">
          <mxGeometry x="384" y="168" width="120" height="48" as="geometry" />
        </mxCell>
        <mxCell id="QqpPn8TOwaWQVm5mVyx2-6" value="job posting" style="ellipse;whiteSpace=wrap;html=1;" vertex="1" parent="1">
          <mxGeometry x="384" y="224" width="120" height="48" as="geometry" />
        </mxCell>
        <mxCell id="QqpPn8TOwaWQVm5mVyx2-7" value="Search&lt;div&gt;Candidate&#39;s&lt;/div&gt;&lt;div&gt;Profile&lt;/div&gt;" style="ellipse;whiteSpace=wrap;html=1;" vertex="1" parent="1">
          <mxGeometry x="384" y="280" width="120" height="48" as="geometry" />
        </mxCell>
        <mxCell id="QqpPn8TOwaWQVm5mVyx2-8" value="Manage&lt;div&gt;Application&lt;/div&gt;" style="ellipse;whiteSpace=wrap;html=1;" vertex="1" parent="1">
          <mxGeometry x="384" y="336" width="120" height="48" as="geometry" />
        </mxCell>
        <mxCell id="QqpPn8TOwaWQVm5mVyx2-9" value="&lt;font style=&quot;font-size: 11px;&quot;&gt;Manage subscription&lt;/font&gt;&lt;div&gt;plan&lt;/div&gt;" style="ellipse;whiteSpace=wrap;html=1;" vertex="1" parent="1">
          <mxGeometry x="384" y="392" width="120" height="48" as="geometry" />
        </mxCell>
        <mxCell id="QqpPn8TOwaWQVm5mVyx2-10" value="Manage&lt;div&gt;Notification&lt;/div&gt;" style="ellipse;whiteSpace=wrap;html=1;" vertex="1" parent="1">
          <mxGeometry x="384" y="448" width="120" height="48" as="geometry" />
        </mxCell>
        <mxCell id="QqpPn8TOwaWQVm5mVyx2-11" value="Logout" style="ellipse;whiteSpace=wrap;html=1;" vertex="1" parent="1">
          <mxGeometry x="388" y="502" width="120" height="48" as="geometry" />
        </mxCell>
        <mxCell id="QqpPn8TOwaWQVm5mVyx2-12" value="" style="endArrow=classic;html=1;rounded=0;entryX=-0.012;entryY=0.172;entryDx=0;entryDy=0;entryPerimeter=0;" edge="1" parent="1">
          <mxGeometry width="50" height="50" relative="1" as="geometry">
            <mxPoint x="136" y="208" as="sourcePoint" />
            <mxPoint x="398.0799999999999" y="80.00200000000001" as="targetPoint" />
          </mxGeometry>
        </mxCell>
        <mxCell id="QqpPn8TOwaWQVm5mVyx2-13" value="" style="endArrow=classic;html=1;rounded=0;entryX=0.1;entryY=0.194;entryDx=0;entryDy=0;entryPerimeter=0;" edge="1" parent="1" target="QqpPn8TOwaWQVm5mVyx2-2">
          <mxGeometry width="50" height="50" relative="1" as="geometry">
            <mxPoint x="128" y="208" as="sourcePoint" />
            <mxPoint x="406.0799999999999" y="88.00200000000001" as="targetPoint" />
          </mxGeometry>
        </mxCell>
        <mxCell id="QqpPn8TOwaWQVm5mVyx2-14" value="" style="endArrow=classic;html=1;rounded=0;entryX=0;entryY=0.5;entryDx=0;entryDy=0;" edge="1" parent="1" target="QqpPn8TOwaWQVm5mVyx2-5">
          <mxGeometry width="50" height="50" relative="1" as="geometry">
            <mxPoint x="136" y="208" as="sourcePoint" />
            <mxPoint x="414.0799999999999" y="96.00200000000001" as="targetPoint" />
          </mxGeometry>
        </mxCell>
        <mxCell id="QqpPn8TOwaWQVm5mVyx2-15" value="" style="endArrow=classic;html=1;rounded=0;" edge="1" parent="1" target="QqpPn8TOwaWQVm5mVyx2-6">
          <mxGeometry width="50" height="50" relative="1" as="geometry">
            <mxPoint x="128" y="208" as="sourcePoint" />
            <mxPoint x="422.0799999999999" y="104.00200000000001" as="targetPoint" />
          </mxGeometry>
        </mxCell>
        <mxCell id="QqpPn8TOwaWQVm5mVyx2-16" value="" style="endArrow=classic;html=1;rounded=0;entryX=0.043;entryY=0.354;entryDx=0;entryDy=0;entryPerimeter=0;" edge="1" parent="1" target="QqpPn8TOwaWQVm5mVyx2-7">
          <mxGeometry width="50" height="50" relative="1" as="geometry">
            <mxPoint x="128" y="208" as="sourcePoint" />
            <mxPoint x="430.0799999999999" y="112.00200000000001" as="targetPoint" />
          </mxGeometry>
        </mxCell>
        <mxCell id="QqpPn8TOwaWQVm5mVyx2-17" value="" style="endArrow=classic;html=1;rounded=0;" edge="1" parent="1" target="QqpPn8TOwaWQVm5mVyx2-8">
          <mxGeometry width="50" height="50" relative="1" as="geometry">
            <mxPoint x="128" y="208" as="sourcePoint" />
            <mxPoint x="438.0799999999999" y="120.00200000000001" as="targetPoint" />
          </mxGeometry>
        </mxCell>
        <mxCell id="QqpPn8TOwaWQVm5mVyx2-18" value="" style="endArrow=classic;html=1;rounded=0;entryX=0;entryY=0.5;entryDx=0;entryDy=0;" edge="1" parent="1" target="QqpPn8TOwaWQVm5mVyx2-9">
          <mxGeometry width="50" height="50" relative="1" as="geometry">
            <mxPoint x="128" y="208" as="sourcePoint" />
            <mxPoint x="446.0799999999999" y="128.002" as="targetPoint" />
          </mxGeometry>
        </mxCell>
        <mxCell id="QqpPn8TOwaWQVm5mVyx2-19" value="" style="endArrow=classic;html=1;rounded=0;entryX=0;entryY=1;entryDx=0;entryDy=0;" edge="1" parent="1">
          <mxGeometry width="50" height="50" relative="1" as="geometry">
            <mxPoint x="136" y="208" as="sourcePoint" />
            <mxPoint x="383.57359312880703" y="472.97056274847705" as="targetPoint" />
          </mxGeometry>
        </mxCell>
        <mxCell id="QqpPn8TOwaWQVm5mVyx2-20" value="" style="endArrow=classic;html=1;rounded=0;entryX=0.05;entryY=0.746;entryDx=0;entryDy=0;entryPerimeter=0;" edge="1" parent="1">
          <mxGeometry width="50" height="50" relative="1" as="geometry">
            <mxPoint x="128" y="208" as="sourcePoint" />
            <mxPoint x="384" y="524.908" as="targetPoint" />
          </mxGeometry>
        </mxCell>
      </root>
    </mxGraphModel>
  </diagram>
  <diagram id="4RuQE9x-g3ECqCpv4J8I" name="Page-4">
    <mxGraphModel grid="1" page="1" gridSize="10" guides="1" tooltips="1" connect="1" arrows="1" fold="1" pageScale="1" pageWidth="850" pageHeight="1100" math="0" shadow="0">
      <root>
        <mxCell id="0" />
        <mxCell id="1" parent="0" />
      </root>
    </mxGraphModel>
  </diagram>
</mxfile>
